<svg id="UI" xmlns="http://www.w3.org/2000/svg" xmlns:xlink="http://www.w3.org/1999/xlink" viewBox="0 0 2673.91 2221.15"><defs><style>.cls-1{fill:#fdc510;}.cls-2{fill:#e3e5fc;}.cls-3{fill:#f0f1fc;}.cls-4{opacity:0.49;fill:url(#linear-gradient);}.cls-5{fill:#eac2ab;}.cls-6{fill:#d4a79a;}.cls-7{fill:#4b369d;}.cls-8{fill:#59c61a;}.cls-9{fill:#5a54ff;}.cls-10{fill:#a7adff;}.cls-11{fill:#f3aa02;}.cls-12{fill:#d7384e;}.cls-13{fill:#f44e4e;}.cls-14{fill:#59c690;}.cls-15{fill:#978cff;}.cls-16{fill:#fff;}.cls-17{fill:#ffd592;}</style><linearGradient id="linear-gradient" x1="1696.23" y1="1751.59" x2="1639.55" y2="1546.78" gradientUnits="userSpaceOnUse"><stop offset="0" stop-color="#a7adff"/><stop offset="1" stop-color="#e3e5fc"/></linearGradient></defs><g id="Ref_and_win" data-name="Ref and win"><g id="Leaves_1" data-name="Leaves 1"><path class="cls-1" d="M2068.76,367.14c1.6,2.36,3.7,4.59,6.46,5.34,4.6,1.25,9.42-2.24,11.34-6.6s1.68-9.33,1.41-14.09c7.31,6.88,17.33,12.42,27.08,10s15.9-16.33,8.46-23.08c7.07,1.85,14.68,3.67,21.53,1.12s11.7-11.49,7.44-17.43c-2.14-3-5.84-4.35-9.31-5.55l-47.09-16.26c-4.06-1.4-8.26-2.83-12.55-2.47C2051.43,300.78,2055.35,347.47,2068.76,367.14Z"/><path class="cls-2" d="M585.53,658.37c1.61,2.36,3.71,4.59,6.46,5.34,4.6,1.25,9.42-2.24,11.35-6.6s1.68-9.33,1.4-14.09c7.32,6.88,17.33,12.43,27.08,10s15.9-16.33,8.46-23.08c7.07,1.85,14.69,3.67,21.53,1.12s11.71-11.49,7.45-17.43c-2.15-3-5.84-4.34-9.32-5.54l-47.08-16.27c-4.06-1.4-8.27-2.82-12.56-2.47C568.2,592,572.12,638.7,585.53,658.37Z"/><path class="cls-1" d="M996.16,444.75c-6.4,2-32.1-75.85-57.3-42.41C916.35,432.2,976.19,451,996.16,444.75Z"/><path class="cls-2" d="M451.46,831.58c17.23,3.11,35,1.29,52.18-2.07-17.62-5.86-33.44-16-50.26-23.87-9.91-4.63-45-20.48-44.27,1.8C409.54,820.39,442,829.88,451.46,831.58Z"/><path class="cls-2" d="M1928.9,347.57a97.39,97.39,0,0,0,75.87-3c-10,4.78-49.79-12.14-60.52-15.25-15-4.34-37.47-17.44-52.34-10.38C1897.23,332.27,1915.31,342.34,1928.9,347.57Z"/><path class="cls-1" d="M2099,619.47l22.35,39.35c3.67,6.46,7.44,13,13,18s13.34,8,20.53,6.1c2.88-.77,5.83-2.69,6.32-5.63.36-2.16-.69-4.28-1.75-6.2a155.54,155.54,0,0,0-50.76-54.71"/><path class="cls-2" d="M2210.34,531.52c2.62.39,5.24-.56,7.7-1.54a179.24,179.24,0,0,0,46.76-27.46c-11.64-.15-73.62-11-80.18-4.48C2174,508.69,2197.94,529.67,2210.34,531.52Z"/><path class="cls-1" d="M781,420c1.56-.64,3.21-1.4,4.05-2.85,2.77-4.74-5-8.49-10.45-8.57-11.67-.18-70.87-6.19-61.32,14.4C722.48,442.8,767.24,425.71,781,420Z"/></g><ellipse id="Ground_4" data-name="Ground 4" class="cls-3" cx="922.04" cy="1919.63" rx="374.64" ry="53.71"/><g id="Chair_1" data-name="Chair 1"><path class="cls-2" d="M1938.21,1315.4s75.37,120.8,147.41,187.34,155.87,134.72,105.09,259.91-200.43,176.47-468.06,169.92-362.13-8-420.81-140.73,136.65-162.55,270.09-202.91S1938.21,1315.4,1938.21,1315.4Z"/><path class="cls-4" d="M1951.09,1579.1s36.71,141.69-94.17,175.33-375.08,28.68-467-36.77S1951.09,1579.1,1951.09,1579.1Z"/></g><g id="Woman_7" data-name="Woman 7"><path id="Arm" class="cls-5" d="M1756.8,1442.48s-39.59,69.8-103.4,52.33-108.05-109.47-127.1-99.25-64.61-5.55-13.69-19.84c23.38-6.56,26.87-5.56,29.56-3.63,35.27,25.32,76.41,64.68,97.95,83.14,23.18,19.87,52.14,5.56,78.63-9.35S1846.19,1399.34,1756.8,1442.48Z"/><g id="Head"><path id="Neck" class="cls-6" d="M1799.69,1311.8l9.1,66.62c16.08,4.73,32.93,13.76,49.88,13.74-.77-12.36-12.87-26.5-18.43-38.16-6.73-14.14,9.75-46.21,10.5-62.08C1852.7,1250.45,1799.69,1311.8,1799.69,1311.8Z"/><path id="Face" class="cls-5" d="M1784.94,1211.29c-8.08-2.18-31.24,6.51-35,14-9.13,18.11-2.21,39.19-4.39,60.48-1.46,14.27,8.74,43.47,19.81,55,16.39,17.14,37-6,49.41-20.33,17.45-20.18,25.06-47,22.68-73.57-.86-9.56-3.45-19.62-10.6-26-6.88-6.16-16.59-7.76-25.74-9.1C1795.43,1210.94,1790.49,1212.79,1784.94,1211.29Z"/></g><g id="Leg"><path id="Skin" class="cls-5" d="M1314.68,1810.76l-48,54.79,16.66,17.92,46.66-60.14S1322.34,1812.24,1314.68,1810.76Z"/><path id="Shoe" class="cls-1" d="M1160.24,1833.49s14.09,15.42,46,36.09,68.26,42.23,77.7,41,36.75-40.77,25.68-46.84-24.16,7.59-35.85-17.41c-10-21.42-36-5.65-68.54-15.45S1159.54,1817.07,1160.24,1833.49Z"/><path id="Leg-2" data-name="Leg" class="cls-7" d="M1477.33,1635.91c-5.06,0-10.28,0-14.94,2-5.16,2.2-9,6.55-12.76,10.75q-39.87,45-82.43,87.56c-27.55,27.53-56.46,54.64-91.25,72.14,2.88,5.6,9.19,8.34,14.9,11a175.53,175.53,0,0,1,61.08,47,66.65,66.65,0,0,1,19.84-40.89c8-7.66,17.65-13.2,26.93-19.18,41.77-26.92,76.1-63.94,116.57-92.77a19.57,19.57,0,0,1,5.83-3.2c2.82-.8,5.82-.33,8.71.13a1313.85,1313.85,0,0,0,191.8,16.4c14.85.18,33.38-2.38,38.08-16.47,19-56.93-178.13-69.19-203.56-71.19C1531.11,1637.25,1502.29,1632.64,1477.33,1635.91Z"/></g><path id="Body" class="cls-8" d="M1799.53,1366.61c-26,9.85-55.2,43.36-64.53,57.17-28.46,42.12-11,81-52.76,142.23-4,5.9-2.67,14.47,0,21.11,3.86,9.77,14.57,14.61,24.16,18.9a388.58,388.58,0,0,1,103,67.55,1673.47,1673.47,0,0,0,32.45-251c.72-13.56,1.17-27.69-4.37-40.24C1829,1363.18,1814.78,1360.84,1799.53,1366.61Z"/><path id="Arm-2" data-name="Arm" class="cls-5" d="M1848.49,1405c13.91,33.59,3.38,72.94,9.39,109.18s4.5,71.7,12.95,107.53c5.49,23.27,10.08,46.71,13.54,70.3.26,1.76.57,3.64,1.87,5,1.45,1.48,3.76,1.9,5.9,2.24,20,3.24,54.88,2.46,67,19.3-20.33,8.1-46.22,5.24-66.77-1.7l11,11.2c-8.28,4-18.65.39-25.13-6.15s-10-15.41-13.25-24c-18.32-47.68-38.09-94.69-45.75-145.57-4.33-28.77-4.21-58.08-10.46-86.55-1.93-8.81-4.48-17.61-4.37-26.59.18-14.43,7.65-28.66,19.89-37.84a21,21,0,0,1,8.2-4.12c5.63-1.15,11.54,1.47,15.41,5.35s6.08,8.88,8.12,13.78"/><g id="Leg-3" data-name="Leg"><path id="Skin-2" data-name="Skin" class="cls-5" d="M1496.25,1765.51l-7.66,72.42,24,5,3.49-76S1503.36,1762.31,1496.25,1765.51Z"/><path id="Shoe-2" data-name="Shoe" class="cls-1" d="M1397.12,1876.33s17.94,4,51.34,2.73,70.5-4.13,76.67-9.79,5.84-47.94-5.2-46.71-13.56,17.69-34.62,5.6c-18-10.35-28.79,14.16-57.15,23.55S1388.31,1864.86,1397.12,1876.33Z"/><path id="Leg-4" data-name="Leg" class="cls-9" d="M1802.39,1602.52c9.38,3.77,19,9,23.67,17.93,2.68,5.16,3.44,11.09,3.87,16.9,1.67,22.64-2,47.51-18.31,63.32-8,7.74-18.26,12.6-28.59,16.68-24.48,9.67-51.46,15.74-77.12,9.89-28.21-6.43-51.36-26.4-70.7-47.92a375.3,375.3,0,0,1-43.63-59.4c-7-11.83-14.57-25.06-27.66-29.29-10.29,31.18-2.79,65.26-6.34,97.89-2,18.53-7.6,36.54-9.45,55.08s.61,38.68,12.64,52.9c-10.1,9.58-26.25,5.73-39.94,3.19a145.09,145.09,0,0,0-51.74-.18c-4.33.77-9.31,1.59-12.71-1.21-2.81-2.3-3.49-6.32-3.33-9.94.56-12.22,8.3-22.79,12.24-34.36,4.66-13.67,3.93-28.48,4.64-42.9,2.37-48.09,21.23-94.32,22.7-142.45.41-13.79-.59-27.75,2.25-41.24s10.4-26.94,23-32.5c14.77-6.51,34.66-5.55,46.86,5,7.5,6.5,85.89,56.85,153.4,89C1745.21,1601.81,1774.59,1591.35,1802.39,1602.52Z"/></g><path id="Hair" class="cls-7" d="M1960.3,1512.53c-2.91-.19-5.65-.78-7.54-2.84-3.29-3.58-2.19-9.17-2.79-14-1.33-10.59-10-18.28-10.59-29.15-.72-12.66,6.92-24.22,2.92-37.13s-15-25.54-23.88-35.51c-7.28-8.2-17.53-14.7-22.29-24.91-4.48-9.6-1-20.34.55-30.19,1.64-10.8-3.22-16.42-4.18-26.69-.66-7,3.11-13.48,2.49-20.42,1-4.19,1.84-8.55,2.5-12.78,2.82-17.88-14.9-27.61-23.7-39.76-9.22-12.74-.19-34.79-10.86-49.84-14.2-20-44.21-22.84-66.44-18.42-16.37,3.26-23.33,13.46-35.18,23.57-5,4.3-12.25,5.16-17.94,8.29-8.37,4.59-13.91,11.58-17.85,20.59a17,17,0,0,0-1.46,7.29,11.74,11.74,0,0,0,2.1,6.57c4.12,5.71,12.69,5.86,19.36,3.63,27-9,63.73-7.42,64.53,30.14.35,16-6.71,31.27-8.75,47.07-2.26,17.56,20.12,25.16,27,38.23,6.7,12.7,11.28,29.29,11.08,43.81,0,0-11.33,19.52-10.22,40.7.88,16.77,11.42,16.72,20.37,22.81,5.5,3.74,2.42,19.59,3.79,25.17,2.64,10.76,11.51,17.88,15,28.16,3.78,11.11,3.34,18.32,14.18,25.78,22.87,15.74,53.65,11.92,75.83-3.23,5.15-3.52,17.38-12,16.66-19.64C1974.21,1511.38,1966.82,1513,1960.3,1512.53Z"/></g><g id="Chair_2" data-name="Chair 2"><path class="cls-2" d="M662.37,1931.33c-6.59-7.7-3.4-61.84-2.36-70.52l12.41-104.49,25.17-211.93,2.88-24.22c2-13.43,13.36-23.66,25.25-22.73s20,12.68,18,26.11c-25,133-55.44,266.31-74,400a12.15,12.15,0,0,1-1.58,5.25C665.7,1932.49,663.8,1933,662.37,1931.33Z"/><path class="cls-2" d="M940.6,1929.92c6.44-7.93,2.2-61.94,1-70.58l-14.44-104-29.27-211-3.34-24.11c-2.26-13.36-13.81-23.17-25.68-21.82s-19.75,13.39-17.49,26.75c27.6,132.08,60.57,264.23,81.68,397.25a11.91,11.91,0,0,0,1.68,5.19C937.29,1931.2,939.2,1931.65,940.6,1929.92Z"/><rect class="cls-10" x="659.61" y="1477.79" width="279.58" height="82.37" rx="27.15"/></g><g id="Man_4" data-name="Man 4"><g id="Head-2" data-name="Head"><path id="Neck-2" data-name="Neck" class="cls-6" d="M881.53,1085.71l-22.36,67.49-59.25,6.06s45.1-38.38,51.09-81.87S881.53,1085.71,881.53,1085.71Z"/><path id="Face-2" data-name="Face" class="cls-5" d="M976.76,985.19s7.46,18.66-16.87,63S906,1128,892.51,1121.24c-37.38-18.68-43.63-50.4-50.8-78.12-8.79-34,44.14-96.62,44.14-96.62L922,938.09Z"/><path id="Hair-2" data-name="Hair" class="cls-7" d="M1023,984.26c.39-.66.76-1.35,1.12-2.06,7.39-14.5,10.18-33.39,7-49.39-5.3-27.1-32.52-30-55.39-25.07-10.45,2.24-20.22,9.07-31.29,5.53-8.25-2.64-12.42-10.37-18.69-15.64a47.37,47.37,0,0,0-25.6-10.56c-19.46-2-37.37,8-48,24a44.06,44.06,0,0,0-7.62,22c-1.94-2.73-4.72-3.62-8-3-27.17,5.29-25.61,44.73-24.41,65.43,1,17.28,0,38.77,10.56,53.57,4.2,5.91,15.2,15.3,21.89,8.75,6-5.85,1.31-23.77,2.9-31.45,2.24-10.77,1.26-62.45,56.23-58.56,21.85,1.55,37.25,38.92,57.8,45.42C982.42,1019.78,1011.39,1004.29,1023,984.26Z"/><path id="Ear" class="cls-5" d="M852.43,1012s-15.25-16.91-13.37,9.1,15.57,31.26,15.57,31.26Z"/></g><g id="Leg-5" data-name="Leg"><path id="Skin-3" data-name="Skin" class="cls-5" d="M1141.49,1641.66l35.26,87.16-26.17,15.54-31.71-93.27S1132,1640.42,1141.49,1641.66Z"/><path id="Shoe-3" data-name="Shoe" class="cls-11" d="M1297.67,1741.25s-19.54,11.88-59,23.25-84,22.11-93.23,17.45-24.23-57.4-10.87-60.14,22.27,16.77,42.51-6.41c17.34-19.86,38.82,6.49,75.4,7.21S1303.81,1723.58,1297.67,1741.25Z"/><path id="Leg-6" data-name="Leg" class="cls-7" d="M875.63,1391.42c17.81,2,62.3,22.81,78.71,29,35.19,13.22,88,89.31,109.44,116.23,23.63,29.69,46.09,40.07,67.33,71,14.87,21.47,44,27,59.07,46.59,11.46,14.91,6.19,15.07-11.38,24.61-24.1,13.08-95.29,82.14-106.25,39.94-4.09-15.76-33.28-49.2-43.91-62.36-25-30.86-17.83-78.19-39.23-110.89-10.42-15.92-17.91-34.62-36.06-44.51-15.25-8.3-34.61-8.4-52.78-8.23-25.05.25-39.12-43.29-64.17-43-33,.32-67.2,32.39-93.69,15.81-44.52-27.89,15.78-30.29,40.69-31.26C832.72,1432.37,826.62,1385.9,875.63,1391.42Z"/></g><g id="Leg-7" data-name="Leg"><path id="Skin-4" data-name="Skin" class="cls-5" d="M1041.93,1697.43l42,84-26.65,16.94-38.65-90.3S1031.89,1696.78,1041.93,1697.43Z"/><path id="Shoe-4" data-name="Shoe" class="cls-1" d="M1205.18,1807.87s-21.45,10.11-63.83,18.06-89.92,14.89-99.3,9.51-21-58.67-6.75-60.27,22.1,18.41,45.16-2.8c19.76-18.18,40.28,9.62,78.65,13.35S1213,1790.93,1205.18,1807.87Z"/><path id="Leg-8" data-name="Leg" class="cls-9" d="M836.4,1382.59c17.81,2.55,34.23,10,50.63,17.78,35.19,16.79,64.63,62.71,86.05,96.91q35.45,56.58,67.32,115.58c8.06,14.92,11.37,31.63,18.86,46.66,12.39,24.87,76.44,58.86,34.74,87-26.76,18-69,9.35-99.21,9.24-1.57,0-3.27-.06-4.49-1-1.46-1.16-1.76-3.21-2-5.06-4.18-39.26-8.18-72.1-26-107.67-25-39.21-42.28-66.46-63.67-108-10.42-20.24-9.71-36.85-27.87-49.41-15.24-10.55-31-7.4-49.12-7.17-25.05.3-46.55-.31-71.6,0-33,.4-54.6-.67-72.46-29.42-34.2-55.09-9.87-54.1,15-55.33C742,1390.22,787.38,1375.58,836.4,1382.59Z"/></g><path id="Arm-3" data-name="Arm" class="cls-5" d="M876.48,1192.21s20.89,79.87,29,81.64c6.77,1.47,15,0,21.86-.29,14-.64,28-1.54,42-2.5,24.21-1.65,49.14-2.23,73.12-6.16,14.65-2.4,41.53-6,52.64-16.73,15.06-14.57,41.92,18.91,49.53,27.83,1.1,1.29,2.17,3.35.91,4.48a3,3,0,0,1-2.19.54c-5.43-.24-10.23-3.42-14.71-6.49a61,61,0,0,1,10,15.39c-5-1.88-9.24-5.21-14.14-7.25-19.67-8.18-35.62,20.46-57.67,10.26-14.78-6.83-31.47-2.15-46.85-.45q-20.76,2.31-41.57,4.31c-25.92,2.53-53,6.92-79.15,5.92a18,18,0,0,1-5-.4c-8.2-2.77-23.85-38-35.46-68.62-7.33-19.35-16.83-40.17-10-70.45C855,1135.48,884.14,1148,876.48,1192.21Z"/><g id="Body-2" data-name="Body"><path class="cls-12" d="M841.11,1248.33a319.15,319.15,0,0,1,14.3-43.9c8.79-21.49,24.56-50.73,11.1-73.72-1.89-3.24-4-6.51-7.12-8.93-35.15-27-89.67,24.49-112.41,51.44-28.65,34-29.66,48.46-41.8,88.38-13.48,44.32-25.59,90.75-46,132.94-2.21,4.56-4,10.78.67,13.84,2.13,1.38,4.95,1.54,7.58,1.53,18.23,0,35.71-5,52.89-9.85,27.21-7.64,26-10.63,54.49-5.66,11.17,1.95,21.8-1.38,33.13-1.47,2.8,0,13.9-1.32,16.27-2.42,18.52-8.62-4.06-13.68-5-15.94C802.17,1332.4,829.88,1293.7,841.11,1248.33Z"/><path class="cls-13" d="M884.34,1218.47s3.35-96.63-40-89.53S819,1245,819,1245l70.77-12.59Z"/></g></g><g id="Lamp"><rect class="cls-7" x="1992.49" y="1835.7" width="149.95" height="9.25" rx="4.08" transform="translate(4588.21 697.05) rotate(113.93)"/><rect class="cls-7" x="1997.04" y="1696.5" width="149.95" height="9.25" rx="4.08" transform="translate(3030.15 -802.68) rotate(71.55)"/><circle class="cls-10" cx="2096.51" cy="1774.57" r="11.36"/><path class="cls-2" d="M2034,1895.31c-21,0-38,15.88-38,35.47h76C2072,1911.19,2055,1895.31,2034,1895.31Z"/><path class="cls-11" d="M2056.58,1619.91c-11.34-11.34-47.7,6.64-81.21,40.14l41.07,41.07C2049.94,1667.61,2067.92,1631.25,2056.58,1619.91Z"/><path class="cls-2" d="M1972,1708.37a1.83,1.83,0,0,1-1.35-.58,1.88,1.88,0,0,1,0-2.65l17.41-16.64a1.88,1.88,0,0,1,2.6,2.71l-17.42,16.64A1.85,1.85,0,0,1,1972,1708.37Z"/><path class="cls-2" d="M1991.63,1725.74a1.83,1.83,0,0,1-.92-.24,1.87,1.87,0,0,1-.71-2.55l11.79-21a1.87,1.87,0,1,1,3.27,1.83l-11.8,21A1.85,1.85,0,0,1,1991.63,1725.74Z"/><path class="cls-2" d="M1952.83,1689a1.87,1.87,0,0,1-.68-3.62l22.45-8.73a1.87,1.87,0,0,1,1.36,3.49l-22.45,8.73A1.79,1.79,0,0,1,1952.83,1689Z"/></g><path class="cls-14" d="M1922.17,747.39l-5.2,1.74-2.81-8.43,5.2-1.74a12.23,12.23,0,1,0-7.74-23.21l-5.2,1.74-16.66-50a12.23,12.23,0,0,0-23.21,7.74l16.66,50-54.83,18.29-59.31-36.95a12.24,12.24,0,0,0-16.86,3.92h0a12.25,12.25,0,0,0-.87,11.24c.08.29.15.59.25.89l14,41.85-5.11,1.71a12.23,12.23,0,1,0,7.74,23.21l5.11-1.71,2.81,8.43-5.11,1.71a12.24,12.24,0,0,0-7.74,15.47h0a12.24,12.24,0,0,0,15.48,7.74l5.12-1.71,16,47.84a12.24,12.24,0,0,0,15.48,7.74h0a12.23,12.23,0,0,0,7.73-15.48l-16-47.84L1862,793.27l59.32,36.94a12.24,12.24,0,0,0,16.85-3.91h0a12.2,12.2,0,0,0,.62-11.78,3,3,0,0,0-.09-.32l-14-41.86,5.21-1.74a12.22,12.22,0,0,0,7.73-15.47h0A12.24,12.24,0,0,0,1922.17,747.39ZM1891,748.44l2.81,8.43-28.62,9.54-9.79-6.09Zm-106-3.15,13.3,8.28-9.48,3.16Zm14.37,43.08-2.81-8.43,28.71-9.57,9.79,6.1Zm106,3-13.18-8.21,9.39-3.13Z"/><g id="Cards"><path class="cls-15" d="M1210.26,958.08c-.81,7.86,6.63,15.13,16.54,16.15L1467,999.11c9.92,1,18.69-4.56,19.51-12.41L1488,972l-276.25-28.62Z"/><path class="cls-15" d="M1498.31,872.7a17.94,17.94,0,0,0-16.2-19.46l-240.2-24.88a18,18,0,0,0-19.84,15.73l-4.28,41.27L1494,914Z"/><rect class="cls-7" x="1323.76" y="789.8" width="58.31" height="277.72" transform="translate(289.79 2178.7) rotate(-84.09)"/><circle class="cls-15" cx="1252.86" cy="870.22" r="15.1"/><rect class="cls-15" x="1412.86" y="904.66" width="58.14" height="39.85" rx="19.93" transform="translate(102.94 -143.65) rotate(5.91)"/><path class="cls-10" d="M1238.54,911.05a18.19,18.19,0,0,0,13.62,21.72l235.37,54a18.19,18.19,0,0,0,21.72-13.62l4.17-18.21-270.7-62.06Z"/><path class="cls-10" d="M1536.26,855.27a18.17,18.17,0,0,0-13.61-21.71l-235.38-54a18.17,18.17,0,0,0-21.71,13.61l-9.5,41.42,270.7,62.06Z"/><rect class="cls-2" x="1354.88" y="755.91" width="59.72" height="277.72" transform="translate(203.17 2044.55) rotate(-77.09)"/><circle class="cls-9" cx="1299.08" cy="813.7" r="15.1"/><rect class="cls-9" x="1451.05" y="870.76" width="58.14" height="39.85" rx="19.93" transform="translate(236.46 -308.22) rotate(12.91)"/><rect class="cls-16" x="1264.97" y="881.94" width="50.51" height="11.33" rx="5.66" transform="translate(230.96 -265.87) rotate(12.91)"/><rect class="cls-16" x="1326.83" y="896.12" width="50.51" height="11.33" rx="5.66" transform="translate(235.7 -279.33) rotate(12.91)"/><rect class="cls-16" x="1388.69" y="910.3" width="50.51" height="11.33" rx="5.66" transform="translate(240.43 -292.79) rotate(12.91)"/><rect class="cls-16" x="1449.77" y="924.3" width="50.51" height="11.33" rx="5.66" transform="translate(245.1 -306.09) rotate(12.91)"/></g><g id="Cash"><path class="cls-11" d="M1538.76,527.84q-31.68,21.06-64.33,40.73c-23.61,14-49.7,6.55-59.56-15.6-27.19-60.22-72.92-111.8-111.6-171.2-18.22-28-29.72-40.33-.35-62.75,17.19-13.13,31.43-20.65,48.84-33.18,45.23-32.57,62.87-18.15,80.54,4.68,55.79,72.05,75.41,113.17,111.71,176.07C1557.6,489.75,1561.66,512.81,1538.76,527.84Z"/><path class="cls-17" d="M1521.27,585.74q-34,17.79-68.62,34.28c-25,11.73-53.14,2.51-55.63-21.15-9.91-94.06-31.77-114.6-97-167.5-19.67-15.95-20-46.94-.65-60.92,18.09-12.93,55.18-40.2,72.57-53.85,18.53-14.71,50.49,3,68.15,24.84,47.56,59.09,85.65,118.18,98.69,186.4C1543.7,553.68,1545.82,573.08,1521.27,585.74Z"/><path class="cls-11" d="M1432.31,510.1a50.48,50.48,0,1,1,50.47-50.48A50.54,50.54,0,0,1,1432.31,510.1Zm0-90.37a39.9,39.9,0,1,0,39.89,39.89A39.95,39.95,0,0,0,1432.31,419.73Z"/></g></g></svg>